<?xml version="1.0" encoding="iso-8859-1"?>
<!-- Generator: Adobe Illustrator 18.0.0, SVG Export Plug-In . SVG Version: 6.00 Build 0)  -->
<!DOCTYPE svg PUBLIC "-//W3C//DTD SVG 1.1//EN" "http://www.w3.org/Graphics/SVG/1.1/DTD/svg11.dtd">
<svg xmlns="http://www.w3.org/2000/svg" xmlns:xlink="http://www.w3.org/1999/xlink" version="1.1" id="Capa_1" x="0px" y="0px" viewBox="0 0 486.898 486.898" style="enable-background:new 0 0 486.898 486.898;" xml:space="preserve" width="512px" height="512px">
<g>
	<path d="M86.362,296.885h314.174c17.739,0,32.17-14.431,32.17-32.169V58.024c0-17.739-14.431-32.171-32.17-32.171H86.362   c-17.738,0-32.169,14.433-32.169,32.172v206.692C54.193,282.455,68.624,296.885,86.362,296.885z M204.91,48.853h77.076v131.955   H204.91V48.853z M77.193,58.025c0-5.058,4.113-9.172,9.169-9.172h95.548v143.455c0,6.352,5.149,11.5,11.5,11.5h100.076   c6.351,0,11.5-5.148,11.5-11.5V48.853h95.55c5.056,0,9.17,4.114,9.17,9.171v206.692c0,5.056-4.114,9.169-9.17,9.169H86.362   c-5.056,0-9.169-4.112-9.169-9.168V58.025z" fill="#575757"/>
	<path d="M475.398,314.746H11.5c-6.351,0-11.5,5.148-11.5,11.5v68.561c0,6.352,5.149,11.5,11.5,11.5h7.46v43.239   c0,6.352,5.149,11.5,11.5,11.5h88.496c6.351,0,11.5-5.148,11.5-11.5v-43.239h225.988v43.239c0,6.352,5.149,11.5,11.5,11.5h88.496   c6.351,0,11.5-5.148,11.5-11.5v-43.239h7.46c6.351,0,11.5-5.148,11.5-11.5v-68.561   C486.898,319.894,481.749,314.746,475.398,314.746z M107.456,438.045H41.96v-30.997h65.496V438.045z M444.939,438.045h-65.496   v-30.997h65.496V438.045z M463.898,383.306h-205.07v-45.561h205.07V383.306z M23,337.746h212.829v45.561H23V337.746z" fill="#575757"/>
</g>
<g>
</g>
<g>
</g>
<g>
</g>
<g>
</g>
<g>
</g>
<g>
</g>
<g>
</g>
<g>
</g>
<g>
</g>
<g>
</g>
<g>
</g>
<g>
</g>
<g>
</g>
<g>
</g>
<g>
</g>
</svg>
